<svg width="448" height="984" viewBox="0 0 448 984" fill="none" xmlns="http://www.w3.org/2000/svg">
<g filter="url(#filter0_d_0_1)">
<rect x="24" width="400" height="944" rx="32" fill="white"/>
</g>
<g clip-path="url(#clip0_0_1)">
<path d="M56.6756 492.836C59.6088 491.4 60.854 487.589 64.0362 486.595C67.3014 485.574 70.9263 487.589 73.9148 485.38C75.2153 484.414 76.1838 482.812 77.7611 482.232C79.1447 481.735 80.5836 482.287 81.9118 482.702C83.0463 483.061 84.1808 483.392 85.3153 483.751C89.8811 485.159 94.4192 486.54 98.9849 487.948C104.159 489.522 109.306 491.124 114.481 492.698C114.979 492.864 115.2 492.063 114.702 491.897C105.239 488.998 95.8027 486.098 86.3392 483.199C84.1255 482.536 81.8288 481.514 79.5321 481.238C77.9271 481.045 76.6543 481.68 75.5197 482.729C73.9425 484.193 72.7526 485.546 70.4559 485.656C68.5466 485.767 66.6649 485.27 64.7556 485.574C60.8263 486.181 59.6088 490.461 56.2882 492.091C55.7902 492.367 56.2052 493.085 56.6756 492.836Z" fill="#E8E8E8"/>
<path d="M106.401 489.357C108.365 489.854 109.915 487.893 111.686 487.313C114.066 486.512 116.611 486.844 118.77 488.086C119.24 488.362 119.655 487.644 119.185 487.368C117.359 486.291 115.283 485.85 113.18 486.126C112.267 486.236 111.409 486.485 110.579 486.844C109.389 487.368 108.006 488.887 106.622 488.556C106.096 488.418 105.875 489.219 106.401 489.357Z" fill="#E8E8E8"/>
<path d="M127.735 487.286C125.881 485.767 124.11 484.138 122.45 482.398C121.675 481.597 120.928 480.741 120.209 479.885C119.794 479.388 119.379 478.891 118.991 478.394C118.714 478.035 118.438 477.676 118.189 477.317C117.746 476.875 117.746 476.323 118.216 475.715C118.548 475.853 119.074 475.522 118.797 475.135C117.11 472.871 115.864 470.386 115.062 467.679C114.896 467.845 114.73 468.011 114.564 468.176C115.477 468.425 116.141 468.894 116.639 469.668C116.916 470.109 117.635 469.723 117.359 469.253C113.236 462.129 109.86 454.618 107.314 446.803C107.093 446.941 106.844 447.079 106.622 447.217C118.216 458.594 123.474 474.417 133.242 487.148C133.574 487.562 134.293 487.148 133.961 486.733C124.166 473.948 118.853 458.07 107.203 446.637C106.927 446.361 106.373 446.637 106.511 447.051C109.085 454.949 112.461 462.516 116.639 469.695C116.888 469.557 117.11 469.419 117.359 469.281C116.722 468.315 115.892 467.679 114.785 467.403C114.481 467.32 114.176 467.597 114.287 467.9C115.117 470.662 116.39 473.23 118.106 475.55C118.299 475.356 118.493 475.163 118.687 474.97C117.912 474.611 117.054 474.97 116.86 475.881C116.611 477.179 118.189 478.615 118.908 479.526C121.371 482.591 124.166 485.38 127.21 487.865C127.569 488.197 128.15 487.617 127.735 487.286Z" fill="#E8E8E8"/>
<path d="M124.83 470.027C119.738 462.433 115.615 454.286 112.571 445.671C112.488 445.836 112.378 446.002 112.295 446.168C113.236 445.947 114.038 446.306 114.564 447.134C114.84 447.604 115.505 447.19 115.283 446.72C110.994 437.469 106.622 427.832 106.926 417.421C106.677 417.504 106.401 417.559 106.152 417.642C113.54 432.83 120.568 448.211 127.209 463.731C127.403 464.172 128.123 463.841 127.957 463.399C126.85 460.085 125.771 456.744 124.664 453.43C124.138 451.801 123.585 450.2 123.059 448.57C122.699 447.493 121.924 445.146 123.474 444.566C123.308 444.511 123.169 444.428 123.003 444.373C124.996 448.266 126.96 452.16 128.953 456.054C129.202 456.523 129.921 456.109 129.672 455.64C127.514 451.415 126.518 446.748 126.711 441.998C126.435 442.026 126.158 442.081 125.909 442.108C131.665 456.385 138.333 470.303 145.832 483.751C146.081 484.22 146.801 483.806 146.552 483.337C139.08 469.944 132.439 456.109 126.711 441.888C126.545 441.473 125.909 441.501 125.909 441.998C125.715 446.886 126.767 451.663 128.98 456.054C129.229 455.916 129.451 455.778 129.7 455.64C127.708 451.746 125.743 447.852 123.751 443.959C123.668 443.821 123.446 443.71 123.28 443.765C120.513 444.787 122.284 448.736 122.893 450.586C124.332 454.922 125.743 459.285 127.182 463.62C127.431 463.51 127.68 463.399 127.929 463.289C121.288 447.769 114.259 432.388 106.871 417.2C106.677 416.814 106.096 417.035 106.096 417.421C105.764 427.97 110.219 437.773 114.564 447.134C114.813 446.996 115.034 446.858 115.283 446.72C114.564 445.588 113.402 445.091 112.073 445.367C111.852 445.422 111.714 445.671 111.797 445.864C114.868 454.535 119.019 462.764 124.138 470.413C124.415 470.883 125.134 470.468 124.83 470.027Z" fill="#E8E8E8"/>
<path d="M70.1515 523.405C79.7257 518.794 89.8257 514.099 100.756 515.204C105.93 515.728 110.939 517.22 116.086 517.882C118.687 518.214 121.316 518.352 123.917 518.048C126.352 517.744 128.648 516.861 131.028 516.336C134.1 515.646 136.894 516.364 139.855 517.192C142.29 517.855 144.698 518.407 147.216 517.827C147.741 517.717 147.52 516.916 146.994 517.026C141.958 518.214 137.226 514.596 132.135 515.314C129.617 515.673 127.265 516.667 124.774 517.109C122.146 517.551 119.462 517.496 116.805 517.164C111.575 516.557 106.484 515.01 101.226 514.431C96.0517 513.851 90.9325 514.513 85.9794 515.949C80.3345 517.606 74.9939 520.147 69.7364 522.687C69.2383 522.908 69.6811 523.626 70.1515 523.405Z" fill="#E8E8E8"/>
<path d="M126.324 546.297C129.562 544.917 132.744 543.398 135.815 541.686C137.42 540.775 138.997 539.836 140.575 538.842C141.986 537.93 143.397 536.632 144.947 535.97C146.69 535.252 149.319 536.605 151.062 537.13C152.916 537.709 154.77 538.262 156.596 538.842C160.387 540.001 164.178 541.161 167.942 542.321C168.44 542.487 168.661 541.686 168.163 541.52C164.123 540.278 160.055 539.035 156.015 537.792C154.078 537.185 152.141 536.605 150.204 535.997C148.71 535.528 146.828 534.561 145.251 534.948C143.785 535.307 142.456 536.577 141.211 537.406C139.606 538.455 137.946 539.477 136.286 540.443C132.937 542.349 129.479 544.061 125.909 545.552C125.411 545.773 125.854 546.491 126.324 546.297Z" fill="#E8E8E8"/>
<path d="M160.747 547.154C162.85 546.104 164.953 545.027 167.056 543.978C168.993 542.984 171.068 541.658 173.282 541.465C175.523 541.244 177.267 542.708 179.204 543.564C180.836 544.282 182.607 544.696 184.378 544.806C188.529 545.027 192.403 542.956 196.526 543.177C199.819 543.37 203.139 546.077 206.377 544.365C206.847 544.116 206.432 543.398 205.962 543.647C203.942 544.724 201.756 543.674 199.763 543.039C198.048 542.487 196.387 542.238 194.589 542.432C190.327 542.873 186.426 544.668 182.054 543.647C178.429 542.818 175.662 539.808 171.76 540.94C169.961 541.465 168.274 542.459 166.613 543.288C164.51 544.337 162.407 545.414 160.304 546.463C159.862 546.684 160.277 547.402 160.747 547.154Z" fill="#E8E8E8"/>
<path d="M176.907 541.161C175.191 539.67 173.642 538.013 172.369 536.108C171.788 535.252 171.262 534.34 170.764 533.429C170.515 532.96 170.294 532.49 170.1 532.021C169.934 531.634 169.768 531.275 169.629 530.889C169.38 530.474 169.491 530.088 169.962 529.729C170.211 529.618 170.46 529.508 170.709 529.397C167.665 524.924 165.756 519.843 165.119 514.486C164.87 514.596 164.649 514.679 164.4 514.79C164.898 515.425 165.396 516.06 165.922 516.723C166.226 517.109 166.807 516.612 166.586 516.225C161.771 507.637 159.197 497.972 159.142 488.142C158.893 488.252 158.672 488.335 158.423 488.445C160.304 489.964 161.743 491.842 162.629 494.079C162.878 493.968 163.127 493.858 163.376 493.747C161.217 489.191 160.775 484.055 162.048 479.195C161.771 479.195 161.522 479.195 161.245 479.195C166.918 495.404 172.563 511.586 178.235 527.796C178.401 528.293 179.204 528.072 179.038 527.575C176.188 519.263 174.776 510.537 174.859 501.728C174.61 501.838 174.389 501.921 174.14 502.032C175.828 503.55 176.879 505.456 177.267 507.693C177.35 508.162 178.097 508.052 178.069 507.582C177.986 505.898 177.876 504.186 177.793 502.501C177.571 502.612 177.377 502.75 177.156 502.86C178.623 503.799 178.899 506.284 179.37 507.831C179.868 509.488 180.366 511.144 180.892 512.829C181.916 516.253 182.967 519.65 183.991 523.074C186.066 529.895 188.142 536.743 190.217 543.564C190.383 544.061 191.185 543.867 191.019 543.343C188.778 535.997 186.564 528.624 184.323 521.279C183.244 517.689 182.137 514.099 181.058 510.509C180.504 508.659 179.951 506.837 179.397 504.986C179.038 503.854 178.623 502.832 177.599 502.17C177.35 502.004 176.962 502.225 176.962 502.529C177.045 504.213 177.156 505.925 177.239 507.61C177.516 507.582 177.793 507.527 178.042 507.499C177.654 505.124 176.492 503.053 174.693 501.452C174.417 501.203 174.002 501.369 173.974 501.755C173.891 510.62 175.302 519.429 178.18 527.823C178.457 527.741 178.706 527.685 178.982 527.603C173.31 511.393 167.665 495.211 161.992 479.001C161.854 478.642 161.3 478.587 161.19 479.001C159.862 484.11 160.36 489.439 162.601 494.189C162.795 494.603 163.542 494.3 163.348 493.858C162.407 491.483 160.941 489.467 158.921 487.865C158.644 487.645 158.201 487.783 158.201 488.169C158.257 498.138 160.858 507.969 165.756 516.667C165.977 516.502 166.198 516.336 166.42 516.17C165.922 515.535 165.423 514.9 164.898 514.237C164.676 513.961 164.151 514.182 164.178 514.541C164.815 520.064 166.752 525.283 169.879 529.867C170.155 530.254 170.709 530.005 170.626 529.536C170.487 528.762 169.574 528.486 168.938 528.956C167.776 529.784 168.91 531.745 169.325 532.684C170.902 536.191 173.254 539.256 176.16 541.769C176.741 542.072 177.322 541.493 176.907 541.161Z" fill="#E8E8E8"/>
<path d="M147.963 479.222C147.603 474.031 157.039 477.013 159.668 477.51C163.984 478.311 168.274 479.112 172.59 479.913C181.196 481.514 189.829 483.116 198.435 484.718C198.961 484.828 199.182 484.027 198.656 483.917C188.778 482.067 178.927 480.244 169.048 478.394C164.206 477.483 159.363 476.571 154.521 475.688C152.778 475.356 150.758 474.997 149.125 475.909C147.88 476.571 147.05 477.786 147.16 479.222C147.16 479.747 148.018 479.747 147.963 479.222Z" fill="#E8E8E8"/>
<path d="M192.707 483.806C195.585 484.11 197.356 481.376 199.597 480.051C201.507 478.946 203.167 479.802 205.132 480.189C207.318 480.631 209.559 480.686 211.773 480.41C212.298 480.354 212.298 479.526 211.773 479.581C209.282 479.885 206.792 479.775 204.357 479.167C202.89 478.78 201.562 478.311 200.096 478.891C197.494 479.885 195.723 483.309 192.707 482.978C192.182 482.923 192.182 483.751 192.707 483.806Z" fill="#E8E8E8"/>
<path d="M245.476 536.909C252.117 534.589 258.814 532.269 265.676 530.612C272.843 528.9 280.065 528.21 287.426 528.431C294.703 528.652 301.925 529.48 309.175 530.143C316.453 530.833 323.73 531.496 331.008 532.187C339.365 532.96 347.749 533.733 356.106 534.534C356.631 534.589 356.631 533.761 356.106 533.705C341.191 532.325 326.276 530.944 311.334 529.536C296.972 528.21 282.528 526.249 268.222 529.204C260.363 530.833 252.781 533.484 245.227 536.108C244.757 536.273 244.978 537.074 245.476 536.909Z" fill="#E8E8E8"/>
<path d="M274.725 509.736C279.678 508.687 284.326 506.616 289.003 504.738C294.011 502.75 299.075 501.369 304.443 500.9C309.867 500.43 315.318 500.706 320.714 501.038C326.138 501.369 331.561 501.756 337.012 502.142C343.349 502.612 349.714 503.136 356.05 503.689C356.576 503.744 356.576 502.915 356.05 502.86C344.816 501.866 333.581 501.01 322.319 500.292C311.61 499.602 301.068 499.326 290.857 503.109C285.433 505.125 280.176 507.693 274.476 508.908C274.005 509.046 274.199 509.847 274.725 509.736Z" fill="#E8E8E8"/>
<path d="M338.507 477.897C342.464 474.887 346.642 471.932 351.069 469.668C353.228 468.563 355.552 467.679 357.987 467.486C360.616 467.265 363.245 467.79 365.818 468.121C371.048 468.756 376.306 469.143 381.563 469.474C385.05 469.695 389.477 470.192 391.94 467.155C392.272 466.74 391.691 466.161 391.359 466.575C388.564 470.027 382.67 468.729 378.851 468.48C373.594 468.121 368.392 467.624 363.162 466.961C360.92 466.685 358.707 466.464 356.465 466.879C354.252 467.265 352.176 468.149 350.212 469.198C345.95 471.462 341.91 474.279 338.064 477.206C337.677 477.51 338.092 478.228 338.507 477.897Z" fill="#E8E8E8"/>
<path d="M186.177 473.34C190.106 470.386 194.063 467.458 197.992 464.504C201.756 461.687 205.27 458.732 210.195 458.484C214.844 458.263 219.604 458.788 224.225 459.174C229.206 459.588 234.159 460.141 239.084 460.831C243.235 461.411 248.188 462.957 252.117 460.803C252.588 460.555 252.173 459.837 251.702 460.085C249.682 461.19 247.441 461.19 245.2 460.914C242.792 460.61 240.385 460.196 237.977 459.864C233.329 459.229 228.652 458.705 223.948 458.318C219.327 457.931 214.54 457.379 209.919 457.655C205.63 457.904 202.448 460.113 199.099 462.626C194.644 465.94 190.217 469.281 185.762 472.595C185.347 472.954 185.762 473.672 186.177 473.34Z" fill="#E8E8E8"/>
<path d="M341.855 502.529C342.104 500.706 342.464 498.939 342.99 497.172C343.239 496.343 343.488 495.515 343.82 494.686C344.013 494.189 344.539 493.361 345.259 493.554C345.618 493.665 345.784 494.907 345.812 495.156C345.867 495.598 346.476 495.736 346.614 495.266C347.915 491.041 349.409 486.402 353.394 483.944C353.173 483.834 352.979 483.696 352.757 483.585C352.757 484.276 352.73 484.994 352.73 485.684C352.73 486.071 353.311 486.264 353.505 485.905C355.967 480.796 358.651 475.439 363.632 472.346C363.439 472.181 363.217 472.043 363.023 471.877C360.533 478.311 357.628 484.579 354.335 490.655C354.113 491.041 354.667 491.538 354.999 491.152C356.853 488.943 358.734 486.733 361.17 485.132C360.976 484.938 360.782 484.745 360.588 484.552C357.517 491.014 354.169 497.31 350.488 503.44C350.212 503.909 350.931 504.324 351.208 503.854C354.86 497.724 358.236 491.428 361.308 484.966C361.474 484.635 361.114 484.138 360.727 484.386C358.236 486.043 356.299 488.28 354.39 490.544C354.611 490.71 354.833 490.876 355.054 491.041C358.375 484.911 361.308 478.587 363.826 472.07C363.964 471.739 363.494 471.435 363.217 471.601C358.098 474.776 355.331 480.216 352.785 485.463C353.034 485.546 353.311 485.601 353.56 485.684C353.56 484.994 353.588 484.276 353.588 483.585C353.588 483.282 353.228 483.061 352.951 483.226C348.801 485.794 347.168 490.599 345.812 495.045C346.089 495.073 346.365 495.128 346.614 495.156C346.476 493.747 345.203 491.345 343.654 493.14C342.879 494.051 342.574 495.542 342.242 496.675C341.689 498.497 341.302 500.375 341.025 502.28C340.997 502.833 341.772 503.053 341.855 502.529Z" fill="#E8E8E8"/>
<path d="M148.516 455.916C150.675 454.756 152.861 453.596 155.24 452.961C157.759 452.298 160.249 452.519 162.767 452.851C167.776 453.513 172.784 454.176 177.765 454.839C178.291 454.922 178.291 454.093 177.765 454.01C172.424 453.292 167.056 452.519 161.716 451.884C159.253 451.58 156.901 451.58 154.521 452.271C152.252 452.933 150.149 454.066 148.074 455.17C147.603 455.474 148.046 456.164 148.516 455.916Z" fill="#E8E8E8"/>
<path d="M316.84 268.607C318.833 266.923 321.627 267.254 323.813 268.331C325.474 269.132 326.83 270.761 328.767 270.844C330.565 270.899 332.059 269.684 333.581 268.884C334.605 268.359 335.657 268 336.819 268.248C338.064 268.497 339.143 269.215 340.278 269.712C344.013 271.341 346.504 269.077 349.658 267.282C350.544 266.785 351.485 266.343 352.508 266.26C353.809 266.15 354.971 266.73 356.133 267.227C357.96 268 359.343 268.304 361.197 267.558C363.106 266.812 364.656 266.923 366.565 267.613C367.783 268.055 368.945 268.607 370.218 268.884C372.127 269.325 374.175 269.215 375.614 267.751C376.001 267.365 375.392 266.785 375.033 267.171C373.179 269.049 370.356 268.166 368.226 267.337C366.067 266.509 363.854 265.625 361.557 266.481C360.118 267.033 359.149 267.42 357.6 266.895C356.548 266.536 355.58 265.956 354.501 265.653C352.868 265.156 351.346 265.432 349.852 266.177C348.136 267.033 346.642 268.387 344.843 269.104C342.464 270.043 340.61 268.801 338.451 267.889C336.874 267.227 335.38 267.116 333.803 267.807C331.893 268.663 330.039 270.54 327.798 269.74C326.608 269.325 325.667 268.359 324.588 267.751C323.675 267.254 322.679 266.895 321.655 266.702C319.69 266.343 317.781 266.674 316.231 267.972C315.844 268.387 316.453 268.966 316.84 268.607Z" fill="#E8E8E8"/>
<path d="M326.802 287.468C327.328 287.468 327.328 286.64 326.802 286.64C326.276 286.64 326.276 287.468 326.802 287.468Z" fill="#E8E8E8"/>
<path d="M332.336 290.478C333.637 288.131 336.708 289.263 338.617 290.036C340.527 290.809 342.242 291.279 344.262 290.588C345.923 290.009 347.417 288.904 349.132 288.517C351.512 287.965 352.868 289.981 355.026 290.45C358.402 291.196 361.806 287.44 364.988 289.014C365.874 289.456 366.482 290.036 367.534 289.953C368.502 289.898 369.388 289.429 370.329 289.208C372.957 288.6 375.697 289.07 378.049 290.368C378.519 290.616 378.934 289.898 378.464 289.65C376.97 288.821 375.365 288.324 373.677 288.158C372.819 288.076 371.934 288.103 371.076 288.241C370.052 288.379 369.111 288.821 368.115 289.014C366.759 289.263 366.178 288.6 365.071 288.131C364.518 287.91 363.909 287.799 363.328 287.827C361.944 287.882 360.616 288.462 359.343 288.932C357.711 289.539 355.967 290.119 354.307 289.291C352.896 288.6 351.789 287.551 350.129 287.551C346.697 287.578 344.29 290.865 340.665 289.87C337.981 289.125 333.664 286.501 331.672 290.036C331.368 290.533 332.087 290.947 332.336 290.478Z" fill="#E8E8E8"/>
<path d="M305.495 323.532C307.46 321.986 309.701 322.069 311.859 323.063C313.049 323.615 314.322 324.14 315.567 323.394C316.287 322.952 316.757 322.262 317.615 322.014C318.528 321.737 319.497 321.931 320.382 322.152C321.959 322.538 323.481 323.229 325.114 323.339C327.051 323.477 328.822 322.649 330.704 322.455C332.724 322.262 334.135 323.477 336.016 323.753C337.843 324.002 339.254 322.538 341.08 322.814C343.294 323.146 345.48 323.891 347.666 324.444C348.192 324.582 348.413 323.781 347.887 323.643C345.591 323.063 343.211 322.179 340.859 321.931C338.867 321.71 337.428 323.339 335.435 322.732C333.581 322.179 332.253 321.378 330.261 321.655C328.13 321.958 326.193 322.787 324.007 322.317C322.319 321.958 320.687 321.158 318.943 321.047C318.307 321.019 317.643 321.075 317.034 321.323C316.259 321.627 315.844 322.262 315.125 322.676C313.464 323.643 311.223 321.599 309.452 321.461C307.764 321.323 306.215 321.903 304.886 322.925C304.471 323.284 305.08 323.864 305.495 323.532Z" fill="#E8E8E8"/>
<path d="M146.856 263.278C147.382 263.278 147.382 262.449 146.856 262.449C146.33 262.449 146.33 263.278 146.856 263.278Z" fill="#E8E8E8"/>
<path d="M149.291 263.913C149.789 261.455 153.054 263.029 154.244 263.775C155.6 264.631 157.039 265.404 158.699 264.935C160.498 264.41 161.715 262.864 163.708 262.753C165.589 262.67 167.416 263.526 169.187 264.079C170.709 264.548 172.314 264.879 173.891 264.493C175.745 264.051 177.322 262.753 179.204 262.422C182.912 261.787 186.26 264.797 190.023 263.637C190.521 263.471 190.327 262.67 189.802 262.836C185.872 264.079 182.137 260.599 178.152 261.842C176.104 262.477 174.389 263.913 172.147 263.83C170.072 263.747 168.191 262.753 166.226 262.256C164.676 261.869 163.099 261.759 161.605 262.449C160.747 262.836 160 263.471 159.142 263.885C157.731 264.548 156.541 264.161 155.268 263.444C153.885 262.643 152.695 261.704 151.007 261.842C149.817 261.925 148.765 262.532 148.544 263.747C148.406 264.217 149.208 264.438 149.291 263.913Z" fill="#E8E8E8"/>
<path d="M151.809 425.153C155.102 423.773 158.423 426.23 161.743 426.396C163.459 426.479 165.119 426.065 166.807 425.733C168.938 425.319 170.764 425.291 172.812 426.147C174.057 426.672 175.191 427.003 176.464 426.506C177.184 426.23 177.793 425.761 178.512 425.512C179.314 425.236 180.145 425.181 181.002 425.181C183.963 425.236 186.924 426.258 189.746 424.932C190.217 424.711 189.802 423.994 189.331 424.214C186.315 425.623 182.967 424.076 179.785 424.408C178.263 424.573 177.267 425.457 175.856 425.871C174.168 426.368 172.507 424.932 170.847 424.684C167.277 424.132 163.902 426.12 160.304 425.402C157.427 424.822 154.521 423.137 151.588 424.38C151.117 424.573 151.339 425.374 151.809 425.153Z" fill="#E8E8E8"/>
<path d="M91.9841 384.477C94.3987 384.477 96.3562 382.524 96.3562 380.114C96.3562 377.705 94.3987 375.751 91.9841 375.751C89.5695 375.751 87.6121 377.705 87.6121 380.114C87.6121 382.524 89.5695 384.477 91.9841 384.477Z" fill="#0A3871"/>
<path d="M346.476 354.488C348.172 354.488 349.548 353.116 349.548 351.423C349.548 349.73 348.172 348.358 346.476 348.358C344.78 348.358 343.405 349.73 343.405 351.423C343.405 353.116 344.78 354.488 346.476 354.488Z" fill="#0A3871"/>
<path d="M318.833 247.703C320.086 247.703 321.102 246.69 321.102 245.439C321.102 244.188 320.086 243.175 318.833 243.175C317.579 243.175 316.564 244.188 316.564 245.439C316.564 246.69 317.579 247.703 318.833 247.703Z" fill="#0A3871"/>
<path d="M218.884 444.069C220.443 444.069 221.707 442.808 221.707 441.252C221.707 439.697 220.443 438.436 218.884 438.436C217.325 438.436 216.062 439.697 216.062 441.252C216.062 442.808 217.325 444.069 218.884 444.069Z" fill="#0A3871"/>
<path d="M88.7742 284.099C90.5622 284.099 92.0117 282.653 92.0117 280.868C92.0117 279.084 90.5622 277.637 88.7742 277.637C86.9861 277.637 85.5366 279.084 85.5366 280.868C85.5366 282.653 86.9861 284.099 88.7742 284.099Z" fill="#0A3871"/>
<path d="M200.4 397.456C201.424 397.456 202.254 396.628 202.254 395.606C202.254 394.584 201.424 393.756 200.4 393.756C199.376 393.756 198.546 394.584 198.546 395.606C198.546 396.628 199.376 397.456 200.4 397.456Z" fill="#0A3871"/>
<path d="M375.392 413.196C376.951 413.196 378.215 411.935 378.215 410.38C378.215 408.824 376.951 407.563 375.392 407.563C373.834 407.563 372.57 408.824 372.57 410.38C372.57 411.935 373.834 413.196 375.392 413.196Z" fill="#0A3871"/>
<path d="M67.7441 459.754C68.9056 459.754 69.8471 458.814 69.8471 457.655C69.8471 456.496 68.9056 455.557 67.7441 455.557C66.5827 455.557 65.6411 456.496 65.6411 457.655C65.6411 458.814 66.5827 459.754 67.7441 459.754Z" fill="#0A3871"/>
<path d="M153.746 296.664C151.339 301.551 148.904 306.439 146.496 311.327C156.458 324.665 166.419 337.975 176.381 351.312C178.955 347.419 181.5 343.442 184.074 339.438C190.134 329.939 195.917 320.55 201.451 311.244C199.57 306.467 197.66 301.662 195.779 296.885C194.561 296.249 193.344 295.642 192.126 295.007C180.338 295.034 168.55 295.062 156.79 295.09C155.738 295.642 154.742 296.167 153.746 296.664Z" fill="white"/>
<path d="M146.828 311.548C148.931 306.936 151.09 302.352 153.303 297.796C153.525 297.326 152.833 296.885 152.584 297.382C150.37 301.938 148.212 306.522 146.109 311.134C145.887 311.603 146.607 312.045 146.828 311.548Z" fill="black"/>
<path d="M146.275 312.045C156.015 325.383 165.949 338.555 176.077 351.616C176.409 352.03 176.99 351.451 176.658 351.036C166.585 338.03 156.707 324.913 146.994 311.631C146.69 311.216 145.97 311.631 146.275 312.045Z" fill="black"/>
<path d="M153.497 297.326C154.659 296.719 155.794 296.084 156.956 295.476C157.426 295.228 157.011 294.51 156.541 294.758C155.379 295.366 154.244 296.001 153.082 296.608C152.584 296.885 153.027 297.575 153.497 297.326Z" fill="black"/>
<path d="M157.648 295.531C166.281 295.531 174.942 295.531 183.576 295.531C184.101 295.531 184.101 294.703 183.576 294.703C174.942 294.703 166.281 294.703 157.648 294.703C157.122 294.703 157.122 295.531 157.648 295.531Z" fill="black"/>
<path d="M201.839 311.161C200.095 306.55 198.297 301.993 196.443 297.409C196.249 296.912 195.447 297.133 195.64 297.63C197.494 302.186 199.293 306.77 201.036 311.382C201.23 311.879 202.032 311.658 201.839 311.161Z" fill="black"/>
<path d="M200.925 311.575C192.818 324.83 184.544 338.002 176.104 351.064C175.8 351.506 176.519 351.92 176.824 351.478C185.264 338.417 193.537 325.272 201.645 311.99C201.922 311.548 201.202 311.106 200.925 311.575Z" fill="black"/>
<path d="M195.945 296.553C194.976 295.946 194.008 295.311 193.039 294.703C192.596 294.427 192.181 295.117 192.624 295.421C193.593 296.029 194.561 296.664 195.53 297.271C196 297.575 196.415 296.857 195.945 296.553Z" fill="black"/>
<path d="M192.098 294.62C184.876 294.62 177.654 294.62 170.459 294.62C169.934 294.62 169.934 295.449 170.459 295.449C177.682 295.449 184.904 295.449 192.098 295.449C192.624 295.449 192.624 294.62 192.098 294.62Z" fill="black"/>
<path d="M147.16 311.962C152.114 309.836 157.067 307.709 162.02 305.583C162.518 305.362 162.075 304.672 161.605 304.865C156.652 306.991 151.699 309.118 146.745 311.244C146.275 311.465 146.69 312.183 147.16 311.962Z" fill="black"/>
<path d="M153.635 297.078C156.679 297.547 159.668 298.21 162.628 299.038C163.154 299.177 163.376 298.376 162.85 298.238C159.889 297.382 156.901 296.747 153.857 296.277C153.331 296.194 153.082 296.995 153.635 297.078Z" fill="black"/>
<path d="M162.407 298.9C163.071 300.972 163.652 303.043 164.15 305.169C164.261 305.694 165.064 305.473 164.953 304.948C164.455 302.822 163.874 300.751 163.21 298.68C163.044 298.183 162.241 298.376 162.407 298.9Z" fill="black"/>
<path d="M163.68 298.983C171.096 298.983 178.484 298.983 185.9 298.983C186.426 298.983 186.426 298.155 185.9 298.155C178.484 298.155 171.096 298.155 163.68 298.155C163.154 298.155 163.154 298.983 163.68 298.983Z" fill="black"/>
<path d="M185.54 299.149C185.264 300.668 184.987 302.214 184.71 303.733C184.627 304.258 185.43 304.479 185.513 303.954C185.789 302.435 186.066 300.889 186.343 299.37C186.426 298.845 185.623 298.624 185.54 299.149Z" fill="black"/>
<path d="M164.593 305.224C171.068 305.224 177.543 305.224 184.046 305.224C184.572 305.224 184.572 304.396 184.046 304.396C177.571 304.396 171.096 304.396 164.593 304.396C164.067 304.396 164.067 305.224 164.593 305.224Z" fill="black"/>
<path d="M186.703 298.983C189.719 298.348 192.707 297.713 195.723 297.078C196.249 296.967 196.028 296.167 195.502 296.277C192.486 296.912 189.497 297.547 186.481 298.182C185.955 298.293 186.177 299.094 186.703 298.983Z" fill="black"/>
<path d="M185.319 304.976C188.114 305.417 190.715 306.991 193.261 308.179C195.972 309.449 198.656 310.719 201.368 311.99C201.839 312.211 202.281 311.493 201.783 311.272C198.906 309.919 196.055 308.593 193.178 307.24C190.743 306.08 188.224 304.617 185.54 304.175C185.015 304.092 184.793 304.893 185.319 304.976Z" fill="black"/>
<path d="M164.842 306.494C168.44 321.296 172.009 336.125 175.606 350.926C175.745 351.451 176.519 351.23 176.409 350.705C172.812 335.904 169.242 321.075 165.645 306.273C165.506 305.749 164.704 305.97 164.842 306.494Z" fill="black"/>
<path d="M184.157 307.488C180.781 321.738 177.986 336.152 175.828 350.65C175.745 351.174 176.547 351.395 176.63 350.871C178.788 336.373 181.583 321.986 184.959 307.709C185.098 307.185 184.295 306.964 184.157 307.488Z" fill="black"/>
<path d="M184.433 279.847C185.679 276.671 186.37 273.33 186.481 269.905C186.509 269.381 185.679 269.381 185.651 269.905C185.54 273.247 184.849 276.505 183.631 279.626C183.437 280.123 184.24 280.316 184.433 279.847Z" fill="black"/>
<path d="M190.106 280.399C192.762 277.389 195.751 274.738 199.099 272.501C199.542 272.197 199.127 271.479 198.684 271.783C195.281 274.047 192.209 276.754 189.525 279.819C189.165 280.205 189.746 280.785 190.106 280.399Z" fill="black"/>
<path d="M195.557 285.507C198.989 284.486 202.53 284.099 206.1 284.375C206.626 284.403 206.626 283.574 206.1 283.547C202.447 283.271 198.85 283.657 195.336 284.707C194.838 284.872 195.032 285.673 195.557 285.507Z" fill="black"/>
<path d="M137.254 266.15C137.586 271.617 134.515 276.837 129.589 279.211C129.312 279.349 129.34 279.764 129.589 279.929C134.1 282.636 136.175 287.606 137.365 292.494C137.503 293.019 138.278 292.798 138.167 292.273C136.922 287.164 134.708 282 130.004 279.211C130.004 279.46 130.004 279.681 130.004 279.929C135.179 277.416 138.444 271.866 138.084 266.15C138.057 265.625 137.226 265.625 137.254 266.15Z" fill="#E8E8E8"/>
<path d="M137.558 266.15C137.199 271.894 140.464 277.444 145.638 279.929C145.638 279.681 145.638 279.46 145.638 279.211C140.907 282.028 138.693 287.192 137.448 292.328C137.309 292.853 138.112 293.074 138.25 292.549C139.44 287.634 141.515 282.636 146.053 279.929C146.303 279.791 146.33 279.349 146.053 279.211C141.128 276.837 138.029 271.617 138.361 266.15C138.416 265.625 137.586 265.625 137.558 266.15Z" fill="#E8E8E8"/>
<path d="M272.29 473.451C273.258 473.037 274.586 472.429 276.108 471.573C278.654 470.165 279.927 469.447 280.702 468.315C281.698 466.823 281.31 466.023 282.611 464.531C282.805 464.283 283.718 463.316 284.908 462.792C286.955 461.936 288.865 462.957 292.047 464.09C294.98 465.139 297.277 465.636 301.87 466.658C303.696 467.072 305.91 467.486 309.12 468.48C310.033 468.756 310.753 469.005 311.251 469.171C311.306 469.751 311.334 471.242 310.365 472.595C309.922 473.202 309.314 473.699 308.345 474.141C306.104 475.191 303.973 474.997 302.174 474.914C298.3 474.749 299.905 475.301 290.774 475.467C288.782 475.494 287.149 475.494 286.014 475.494C284.603 476.461 283.192 477.455 281.753 478.477C279.318 480.244 276.994 482.011 274.78 483.751C273.95 480.327 273.12 476.875 272.29 473.451Z" fill="black"/>
<path d="M260.751 438.105C258.758 439.154 258.537 439.54 251.121 445.837C239.555 455.64 238.282 456.164 227.794 465.305C217.75 474.031 215.868 476.212 213.959 479.084C209.199 486.347 208.148 492.422 207.843 495.377C207.428 499.353 206.875 504.876 210.389 509.239C212.603 511.973 215.481 513.105 216.449 513.464C219.355 514.569 221.734 514.431 226.023 514.127C231.724 513.713 236.068 512.608 237.784 512.139C239.665 511.614 244.037 510.316 249.516 507.61C254.663 505.069 256.877 503.192 263.905 498.47C267.032 496.371 271.653 493.306 277.464 489.771C277.824 487.01 277.52 484.856 277.215 483.503C276.496 480.299 275.029 478.09 273.397 475.66C272.068 473.672 270.795 472.153 269.91 471.159C271.985 469.585 274.697 467.321 277.547 464.283C279.457 462.239 282.473 458.981 284.991 454.397C288.09 448.764 291.189 443.075 289.197 439.154C286.07 432.996 271.183 432.72 260.751 438.105Z" fill="white"/>
<path opacity="0.18" d="M285.544 441.115C283.967 444.76 281.366 449.923 277.215 455.446C271.183 463.427 265.095 467.845 255.908 474.39C229.925 492.891 222.952 497.116 223.727 498.884C224.778 501.286 239.416 496.978 241.547 496.343C257.098 491.759 268.554 484.69 275.721 479.526C273.895 476.737 272.068 473.948 270.242 471.187C272.483 469.585 275.583 467.044 278.488 463.261C280.093 461.19 282.528 457.987 284.105 453.154C285.71 448.349 285.766 444.069 285.544 441.115Z" fill="#9B9797"/>
<path d="M260.64 438.077C250.789 445.395 241.187 453.072 231.945 461.107C227.518 464.946 223.09 468.784 218.94 472.899C215.259 476.544 211.828 480.576 209.753 485.38C207.594 490.351 206.986 496.095 207.511 501.48C207.954 505.926 209.587 510.399 213.654 512.719C217.916 515.121 223.284 514.873 227.988 514.376C233.771 513.796 239.472 512.387 244.867 510.206C256.904 505.318 266.34 496.178 277.713 490.13C278.184 489.882 277.769 489.164 277.298 489.412C267.807 494.466 259.727 501.756 250.208 506.809C245.227 509.46 239.859 511.393 234.325 512.581C229.206 513.658 223.45 514.486 218.248 513.492C215.813 513.022 213.461 512.028 211.717 510.206C210.029 508.411 209.116 506.064 208.646 503.661C207.622 498.442 208.092 492.533 209.808 487.507C211.524 482.481 214.872 478.256 218.524 474.5C222.315 470.607 226.466 467.017 230.534 463.455C240.357 454.839 250.54 446.61 261.055 438.823C261.47 438.491 261.083 437.773 260.64 438.077Z" fill="black"/>
<path d="M233.522 494.686C242.598 491.179 250.817 485.933 258.62 480.189C262.466 477.372 266.257 474.445 270.021 471.518C273.729 468.618 277.27 465.553 280.148 461.825C280.48 461.411 279.761 460.997 279.429 461.411C276.496 465.222 272.815 468.287 269.052 471.242C265.344 474.141 261.609 477.013 257.79 479.802C250.153 485.38 242.156 490.517 233.301 493.913C232.803 494.079 233.024 494.88 233.522 494.686Z" fill="black"/>
<path d="M269.606 471.435C274.946 475.909 277.769 482.84 277.021 489.771C276.966 490.296 277.796 490.296 277.852 489.771C278.599 482.647 275.666 475.467 270.187 470.855C269.799 470.496 269.218 471.076 269.606 471.435Z" fill="black"/>
<path d="M276.966 482.067C278.543 481.597 279.927 480.272 281.255 479.333C282.915 478.173 284.548 477.013 286.208 475.853C286.651 475.55 286.236 474.832 285.793 475.135C284.299 476.185 282.777 477.262 281.283 478.311C279.899 479.278 278.377 480.769 276.745 481.266C276.219 481.404 276.44 482.205 276.966 482.067Z" fill="black"/>
<path d="M272.4 473.837C275.527 472.54 278.405 470.772 281.006 468.591C281.421 468.232 280.812 467.652 280.425 468.011C277.962 470.11 275.195 471.794 272.207 473.037C271.708 473.258 271.93 474.058 272.4 473.837Z" fill="black"/>
<path d="M280.702 468.232C281.227 468.232 281.227 467.403 280.702 467.403C280.176 467.403 280.176 468.232 280.702 468.232Z" fill="black"/>
<path d="M281.698 467.238C282.168 466.133 282.666 464.918 283.552 464.062C284.742 462.902 286.181 463.068 287.702 463.399C290.525 464.034 293.292 464.918 296.059 465.719C298.633 466.437 301.206 467.072 303.862 467.376C305.412 467.541 306.713 467.735 308.096 468.425C309.12 468.922 310.005 469.419 311.14 469.53C311.666 469.585 311.666 468.757 311.14 468.701C309.618 468.563 308.428 467.514 306.989 467.044C305.55 466.575 303.945 466.603 302.451 466.354C299.186 465.829 296.004 464.835 292.849 463.896C291.3 463.455 289.75 463.013 288.173 462.654C287.011 462.405 285.793 462.101 284.631 462.46C282.611 463.068 281.642 465.222 280.895 467.017C280.702 467.514 281.504 467.735 281.698 467.238Z" fill="black"/>
<path d="M286.098 476.461C292.019 475.577 297.885 475.439 303.862 475.329C305.938 475.301 308.151 475.053 309.812 473.699C311.223 472.54 312.025 470.855 311.638 469.06C311.527 468.536 310.725 468.756 310.836 469.281C311.361 471.794 309.092 473.644 306.851 474.197C304.554 474.749 302.064 474.473 299.712 474.528C295.063 474.611 290.47 474.997 285.876 475.688C285.35 475.743 285.599 476.544 286.098 476.461Z" fill="black"/>
<path d="M307.1 470.965C309.148 469.502 311.223 468.038 313.271 466.575C313.409 465.636 313.852 463.592 315.54 461.853C316.038 461.328 317.2 460.113 318.943 459.782C320.77 459.423 322.181 460.251 323.758 460.969C326.304 462.129 328.766 462.571 333.637 463.51C337.483 464.228 339.42 464.587 342.187 464.448C345.95 464.228 348.634 463.233 350.239 464.807C350.405 464.973 351.097 465.719 351.042 466.63C350.959 467.79 349.714 468.535 348.717 469.115C344.373 471.601 341.938 472.319 341.938 472.319C335.795 474.113 332.696 475.025 330.039 475.246C327.881 475.411 324.809 475.494 321.102 474.914C320.022 478.615 316.757 480.989 313.686 480.796C309.729 480.548 306.076 476.102 307.1 470.965Z" fill="black"/>
<path d="M267.364 446.554C267.973 444.704 269.107 442.357 271.238 441.584C272.622 441.087 273.894 441.418 274.31 441.529C276.883 442.164 282.168 441.252 292.711 439.457C297.941 438.574 304.554 437.276 312.164 435.343C312.191 436.751 312.164 438.601 312.081 440.755C311.887 445.588 311.389 449.233 311.278 450.089C310.808 453.513 309.978 459.202 307.46 466.105C306.823 467.873 306.187 469.336 305.744 470.33C306.823 470.827 307.985 471.49 309.12 472.429C313.796 476.157 315.152 481.431 315.595 483.668C314.931 484.469 313.935 485.656 312.662 487.009C307.515 492.477 302.755 495.542 293.679 501.148C288.09 504.6 283.994 507.113 277.436 510.979C269.467 515.673 263.02 519.318 254.995 521.61C253.003 522.19 249.848 522.963 245.864 522.549C243.927 522.356 240.44 521.997 237.092 519.567C232.803 516.474 231.447 511.945 230.893 509.957C229.648 505.511 230.119 501.341 231.281 497.006C232.083 493.968 234.989 483.889 245.089 472.539C247.109 470.275 252.864 465.166 264.32 454.949C267.087 452.491 269.356 450.476 270.878 449.15C269.716 448.266 268.554 447.41 267.364 446.554Z" fill="white"/>
<path opacity="0.18" d="M304.997 438.905C304.36 441.335 303.337 444.842 301.787 448.957C287.647 486.347 256.046 502.501 258.62 506.533C260.502 509.515 278.543 502.087 291.549 494.272C301.289 488.418 308.539 482.149 313.381 477.427C312.606 476.295 311.417 474.749 309.618 473.285C307.875 471.877 306.214 471.021 304.969 470.496C305.827 469.253 306.962 467.376 307.93 464.973C308.566 463.427 309.12 461.77 309.839 458.401C311.002 453.071 311.472 448.846 311.61 447.521C311.942 444.345 312.247 440.231 312.191 435.37C309.784 436.53 307.404 437.718 304.997 438.905Z" fill="#9B9797"/>
<path d="M311.776 435.343C311.804 440.562 311.472 445.781 310.753 450.973C310.088 455.639 309.258 460.444 307.543 464.863C305.689 469.64 302.506 473.119 298.66 476.405C294.731 479.747 290.774 483.033 286.817 486.319C282.279 490.102 277.713 493.858 273.175 497.641C272.76 497.972 273.341 498.552 273.756 498.221C282.085 491.317 290.414 484.441 298.688 477.455C302.34 474.362 305.661 471.159 307.653 466.713C309.59 462.405 310.531 457.683 311.278 453.044C312.219 447.189 312.662 441.28 312.606 435.343C312.606 434.791 311.776 434.791 311.776 435.343Z" fill="black"/>
<path d="M267.834 447.328C268.969 447.935 270.104 448.543 271.266 449.15C271.736 449.399 272.151 448.681 271.681 448.432C270.546 447.825 269.412 447.217 268.25 446.61C267.779 446.361 267.364 447.079 267.834 447.328Z" fill="black"/>
<path d="M271.266 448.819C261.415 456.827 251.066 464.752 242.847 474.473C235.764 482.84 229.925 493.444 229.953 504.683C229.953 509.626 231.309 514.79 234.961 518.297C238.614 521.831 243.899 523.212 248.88 522.963C254.967 522.66 260.751 520.257 266.174 517.606C271.985 514.762 277.492 511.393 283.026 508.052C294.426 501.148 307.155 494.714 315.706 484.193C316.038 483.779 315.457 483.199 315.125 483.613C307.958 492.45 297.885 498.11 288.283 503.909C282.998 507.113 277.768 510.371 272.373 513.409C267.087 516.391 261.581 519.235 255.742 520.92C250.263 522.494 244.148 522.825 238.973 520.092C233.993 517.496 231.447 512.47 230.921 507.002C229.897 495.957 235.459 484.966 242.183 476.571C250.568 466.105 261.525 457.766 271.874 449.371C272.262 449.067 271.681 448.487 271.266 448.819Z" fill="black"/>
<path d="M305.55 470.662C310.753 473.147 314.377 478.062 315.235 483.751C315.318 484.276 316.121 484.055 316.038 483.53C315.18 477.648 311.361 472.484 305.993 469.944C305.495 469.723 305.08 470.441 305.55 470.662Z" fill="black"/>
<path d="M307.211 471.38C308.317 470.938 309.203 470.192 310.144 469.474C311.251 468.618 312.385 467.79 313.492 466.934C313.907 466.602 313.492 465.884 313.077 466.216C312.081 466.961 311.085 467.707 310.088 468.48C309.12 469.226 308.151 470.137 306.989 470.579C306.519 470.772 306.713 471.573 307.211 471.38Z" fill="black"/>
<path d="M313.907 466.602C314.46 464.973 315.125 463.371 316.01 461.88C317.228 459.837 319.054 460.058 321.102 460.582C324.284 461.383 327.328 462.598 330.537 463.316C336.763 464.697 343.156 465.166 349.52 464.752C350.046 464.725 350.046 463.896 349.52 463.924C342.021 464.421 334.467 463.648 327.217 461.604C325.474 461.107 323.786 460.472 322.042 459.975C320.714 459.588 319.137 459.146 317.753 459.423C316.508 459.671 315.789 460.61 315.18 461.659C314.322 463.151 313.658 464.752 313.105 466.381C312.939 466.878 313.741 467.099 313.907 466.602Z" fill="black"/>
<path d="M315.097 479.94C317.172 478.366 319.22 476.792 321.295 475.218C321.71 474.887 321.295 474.169 320.88 474.5C318.805 476.074 316.757 477.648 314.682 479.222C314.267 479.553 314.682 480.271 315.097 479.94Z" fill="black"/>
<path d="M321.268 475.025C328.019 476.488 334.909 475.384 341.302 472.954C344.207 471.849 347.528 470.606 350.018 468.729C351.761 467.431 352.01 464.946 349.714 464.062C349.215 463.869 348.994 464.669 349.492 464.863C350.737 465.332 350.876 466.685 350.018 467.624C349.603 468.094 349.022 468.397 348.468 468.729C347.334 469.364 346.172 469.944 345.009 470.496C342.547 471.656 340.001 472.65 337.372 473.423C332.198 474.914 326.774 475.411 321.461 474.252C320.963 474.113 320.742 474.914 321.268 475.025Z" fill="black"/>
<path d="M249.156 355.759C253.362 352.279 259.644 348.082 268.028 345.596C271.957 344.437 276.883 343.001 283.413 343.553C293.43 344.409 300.32 349.324 302.756 351.119C306.574 353.908 309.175 356.863 310.78 358.934C311.085 378.292 311.5 397.677 312.025 417.035C312.191 423 312.357 428.992 312.551 434.957C308.622 437.387 303.115 440.12 296.142 441.722C279.816 445.45 266.23 440.479 260.723 438.077C260.695 433.189 260.391 425.844 258.897 417.035C256.462 402.565 252.671 396.738 250.291 384.284C249.101 377.85 247.967 368.185 249.156 355.759Z" fill="#0A3871"/>
<path d="M299.186 360.536C297.83 362.027 297.581 363.711 297.664 370.173C297.719 376.966 298.079 381.605 298.301 386.99C298.467 390.884 298.605 393.977 298.522 398.008C298.439 403.089 298.107 407.259 297.802 410.048C295.091 413.086 292.683 415.461 290.885 417.173C286.845 421.011 282.445 425.153 275.942 429.047C273.369 430.566 271.155 431.67 269.661 432.361C268.305 432.14 266.783 431.808 265.123 431.394C261.193 430.4 259.561 429.516 256.6 429.516C255.715 429.516 252.92 429.516 252.643 430.51C252.394 431.339 253.944 432.637 255.161 433.272C256.296 433.852 256.794 433.686 257.928 434.211C259.201 434.818 260.031 435.702 260.529 436.365C260.004 437.11 259.201 438.242 258.316 439.706C257.292 441.418 257.07 442.081 255.881 444.124C254.635 446.278 253.999 447.355 253.446 447.907C252.588 448.708 252.062 448.874 248.216 450.586C244.397 452.298 243.733 452.685 243.733 453.154C243.733 453.624 244.48 453.734 247.441 455.004C249.848 456.026 250.07 456.247 251.315 456.606C252.864 457.048 253.805 457.324 254.94 457.075C256.738 456.716 257.901 455.363 258.399 454.645C258.648 454.866 259.256 455.336 260.059 455.363C260.695 455.363 261.221 455.115 261.636 454.783C263.379 453.541 264.237 451.249 265.953 448.681C266.257 448.239 267.336 446.61 269.08 444.787C270.159 443.627 271.155 442.771 271.875 442.191C272.843 441.97 274.282 441.639 275.998 441.142C282.666 439.237 287.481 436.945 291.521 435.012C293.873 433.879 296.53 432.388 301.815 429.433C306.408 426.865 308.788 425.429 310.891 422.613C311.112 422.309 312.247 420.79 313.243 418.553C313.547 417.863 314.627 415.405 315.208 411.098C315.484 409.192 315.484 408.143 315.512 402.178C315.567 394.584 315.567 395.495 315.567 394.722C315.54 383.594 314.959 384.588 314.765 374.37C314.737 373.404 314.71 370.781 313.907 367.467C313.049 363.877 311.97 362.275 311.361 361.475C310.587 360.453 309.646 359.238 308.041 358.547C305.108 357.25 301.206 358.299 299.186 360.536Z" fill="white"/>
<path opacity="0.25" d="M308.068 358.52C308.733 360.701 309.535 363.849 310.088 367.66C310.753 372.272 311.002 377.353 309.507 390.635C308.262 401.736 307.653 407.287 306.048 412.478C303.752 419.879 302.091 425.264 297.028 429.516C293.762 432.25 290.193 433.52 283.026 436.033C277.768 437.883 273.258 438.988 270.159 439.678C267.945 442.661 264.652 446.444 259.976 450.034C256.323 452.85 252.809 454.783 249.904 456.109C250.319 456.385 252.034 457.49 254.359 457.186C257.07 456.827 258.537 454.894 258.786 454.535C259.312 454.922 260.087 455.336 260.944 455.198C262.715 454.922 263.656 452.409 264.127 451.276C265.15 448.929 267.198 445.698 271.791 442.164C274.835 441.363 278.958 440.148 283.745 438.325C290.414 435.757 294.897 433.272 299.712 430.593C307.432 426.285 309.175 424.518 310.448 422.806C312.773 419.686 313.741 416.482 314.156 415.074C314.903 412.561 315.042 409.744 315.318 404.249C315.512 400.162 315.512 397.014 315.512 394.639C315.512 390.552 315.429 387.515 315.346 384.892C315.235 381.081 315.014 376.607 314.46 371.25C314.045 367.356 313.741 365.81 312.856 364.07C311.5 361.309 309.48 359.542 308.068 358.52Z" fill="#9B9797"/>
<path d="M298.771 360.425C297.332 364.015 297.166 367.881 297.249 371.719C297.332 375.944 297.553 380.142 297.747 384.367C298.135 392.927 298.411 401.515 297.387 410.048C297.332 410.573 298.162 410.573 298.218 410.048C299.214 401.709 298.992 393.286 298.605 384.919C298.411 380.777 298.19 376.635 298.079 372.465C297.968 368.461 298.051 364.429 299.573 360.646C299.767 360.149 298.965 359.928 298.771 360.425Z" fill="black"/>
<path d="M298.992 409.33C296.447 410.739 294.399 412.782 292.434 414.908C290.304 417.2 288.173 419.437 285.793 421.481C280.923 425.706 275.444 429.185 269.578 431.891C269.08 432.112 269.522 432.83 269.993 432.609C275.638 430.013 280.923 426.7 285.655 422.696C288.007 420.735 290.165 418.581 292.241 416.344C294.399 413.997 296.557 411.622 299.38 410.076C299.878 409.772 299.463 409.054 298.992 409.33Z" fill="black"/>
<path d="M269.771 431.946C266.728 431.311 263.656 430.648 260.612 429.958C259.09 429.627 257.541 429.213 255.991 428.936C255.023 428.771 253.999 428.688 253.141 429.24C251.813 430.096 251.813 431.67 253.003 432.609C253.861 433.299 254.967 433.603 255.991 433.935C257.652 434.459 259.063 435.122 260.142 436.53C260.474 436.945 261.193 436.53 260.861 436.116C259.893 434.873 258.731 433.99 257.236 433.465C256.213 433.106 255.078 432.885 254.137 432.361C253.473 432.002 252.615 431.449 253.113 430.455C253.584 429.516 254.774 429.599 255.632 429.737C257.928 430.069 260.225 430.731 262.522 431.256C264.874 431.781 267.226 432.278 269.578 432.775C270.076 432.858 270.297 432.057 269.771 431.946Z" fill="black"/>
<path d="M259.478 436.669C258.26 438.905 257.015 441.114 255.798 443.351C255.189 444.428 254.663 445.588 253.944 446.637C253.196 447.714 252.2 448.267 251.038 448.819C248.852 449.841 246.5 450.669 244.397 451.856C243.456 452.409 242.847 453.403 243.65 454.369C244.646 455.557 246.611 455.087 247.939 454.866C249.765 454.563 251.508 453.955 253.169 453.182C256.628 451.525 259.561 448.929 261.664 445.726C261.968 445.284 261.249 444.87 260.944 445.312C259.09 448.184 256.517 450.503 253.501 452.105C252.062 452.851 250.512 453.458 248.935 453.817C248.05 454.038 247.109 454.231 246.168 454.259C245.31 454.314 245.089 454.425 244.674 453.569C244.148 453.071 244.203 452.74 244.812 452.574C245.006 452.492 245.172 452.409 245.365 452.326C247.136 451.497 248.935 450.697 250.706 449.868C252.09 449.233 253.445 448.681 254.386 447.438C255.493 445.975 256.268 444.235 257.153 442.633C258.177 440.783 259.201 438.933 260.197 437.11C260.446 436.613 259.727 436.199 259.478 436.669Z" fill="black"/>
<path d="M272.124 442.716C279.512 440.645 286.679 437.884 293.541 434.459C296.945 432.747 300.265 430.897 303.503 428.854C306.408 427.031 309.48 425.181 311.555 422.392C311.859 421.95 311.14 421.536 310.836 421.978C308.677 424.905 305.301 426.81 302.258 428.688C299.158 430.593 295.948 432.361 292.683 433.99C286.015 437.276 279.069 439.927 271.902 441.943C271.404 442.053 271.625 442.854 272.124 442.716Z" fill="black"/>
<path d="M299.324 361.171C301.621 356.67 307.515 357.691 310.42 360.895C313.907 364.761 314.073 370.422 314.46 375.337C315.291 386.079 315.457 396.904 314.793 407.646C314.461 412.865 313.686 418.388 310.199 422.53C309.867 422.944 310.448 423.524 310.78 423.11C313.907 419.354 314.986 414.605 315.429 409.855C316.01 403.78 316.01 397.622 315.955 391.519C315.899 385.14 315.595 378.734 315.014 372.382C314.571 367.605 313.713 362.331 309.756 359.155C306.381 356.449 300.736 356.532 298.577 360.757C298.356 361.226 299.075 361.64 299.324 361.171Z" fill="black"/>
<path d="M247.192 455.336C249.212 456.247 251.647 457.628 253.944 457.628C256.157 457.6 257.79 455.778 259.284 454.397C263.573 450.42 267.862 446.444 272.151 442.495C272.539 442.136 271.958 441.556 271.57 441.915C267.945 445.284 264.32 448.625 260.695 451.994C259.09 453.458 257.43 455.557 255.41 456.468C253.03 457.545 249.765 455.612 247.635 454.645C247.136 454.397 246.721 455.115 247.192 455.336Z" fill="black"/>
<path d="M258.454 454.756C259.367 456.468 261.387 455.778 262.411 454.59C264.431 452.215 266.008 449.344 267.724 446.775C268.028 446.334 267.309 445.919 267.004 446.361C265.925 447.963 264.846 449.565 263.767 451.166C263.158 452.05 260.474 456.827 259.173 454.342C258.924 453.872 258.205 454.287 258.454 454.756Z" fill="black"/>
<path d="M252.034 453.403C252.864 453.845 253.888 454.287 254.801 453.845C255.272 453.596 255.466 453.21 255.687 452.768C256.074 452.022 256.462 451.442 257.181 450.973C257.624 450.669 257.209 449.951 256.766 450.255C256.102 450.697 255.549 451.249 255.161 451.967C254.884 452.492 254.718 453.127 253.999 453.182C253.473 453.237 252.892 452.906 252.449 452.685C252.007 452.464 251.564 453.154 252.034 453.403Z" fill="black"/>
<path d="M246.362 295.614C245.393 297.575 244.425 300.861 244.12 301.938C243.678 303.484 242.681 307.102 242.128 311.907C241.824 314.558 241.492 317.457 241.768 321.296C241.907 323.118 242.1 325.99 243.179 329.552C243.899 331.982 244.95 335.489 247.801 339.079C250.291 342.2 253.141 344.16 255.41 345.348C256.849 345.375 258.592 345.293 260.529 344.934C264.016 344.271 266.728 342.973 268.554 341.924C268.803 343.332 269.135 344.823 269.55 346.369C270.408 349.573 271.459 352.389 272.511 354.819C273.645 354.626 275.001 354.295 276.44 353.632C281.006 351.506 283.192 347.585 283.967 345.955C283.552 344.354 283.22 342.614 282.915 340.819C281.864 334.109 282.141 328.116 282.805 323.256C283.386 323.45 284.327 323.698 285.489 323.643C287.758 323.505 289.307 322.262 290.082 321.599C290.746 321.047 293.762 318.368 293.652 314.392C293.624 313.453 293.569 311.161 291.936 309.918C290.414 308.786 288.367 309.201 286.872 309.504C285.157 309.863 283.884 310.581 283.109 311.078C283.69 309.173 284.908 304.285 283.109 298.597C282.722 297.382 280.148 289.65 272.566 286.308C262.273 281.724 249.904 288.517 246.362 295.614Z" fill="white"/>
<path opacity="0.24" d="M277.63 295.78C277.851 298.348 278.018 302.076 277.63 306.494C276.44 319.887 271.127 329.193 269.744 331.513C267.641 335.048 264.044 340.184 258.288 345.237C260.004 345.016 261.968 344.63 264.071 343.884C269.855 341.841 273.728 338.334 275.831 336.042C275.998 339.107 276.523 342.835 277.768 346.922C278.322 348.662 278.931 350.263 279.567 351.699C281.034 349.794 282.473 347.888 283.939 345.955C283.635 344.16 283.358 342.255 283.164 340.294C282.528 334.357 282.528 328.89 282.86 324.03C284.105 324.057 285.904 323.947 287.813 323.201C296.17 319.887 300.929 306.715 296.419 299.536C296.225 299.232 295.229 297.685 293.181 296.305C286.845 292.052 278.792 295.283 277.63 295.78Z" fill="#9B9797"/>
<path d="M244.342 301.11C243.788 299.204 243.013 295.559 243.816 291.086C244.065 289.705 244.923 285.259 247.967 281.752C252.422 276.643 258.011 277.61 265.261 275.014C269.854 273.385 276.163 269.961 282.556 261.897C281.974 264.88 281.393 267.889 280.812 270.872C281.808 271.148 285.157 271.866 288.588 270.181C294.288 267.392 294.786 260.655 294.814 260.351C295.506 261.897 296.751 265.321 296.197 269.684C295.81 272.667 294.731 274.904 293.956 276.257C294.288 276.616 296.059 278.438 298.107 278.162C300.597 277.831 302.922 274.434 302.257 270.043C302.811 271.673 303.475 274.351 303.309 277.637C303.088 281.641 301.759 284.651 300.874 286.281C301.095 286.474 302.506 287.744 304.499 287.496C306.242 287.275 307.736 286.005 308.317 284.21C308.179 286.06 307.847 288.738 306.768 291.804C305.301 295.946 304.084 296.277 303.475 299.232C302.506 303.871 304.997 305.445 304.333 309.587C303.779 313.067 301.51 315.248 298.633 318.037C293.403 323.091 287.398 325.824 282.362 327.343C282.583 325.797 282.832 324.25 283.054 322.704C283.69 323.091 284.797 323.615 286.18 323.56C289.003 323.45 290.774 320.937 291.715 319.584C292.794 318.065 294.593 315.469 293.624 312.68C292.822 310.416 290.691 309.477 290.497 309.394C288.007 308.345 284.797 309.283 282.722 311.824C281.559 307.268 280.425 302.739 279.263 298.182C275.333 295.697 271.432 293.239 267.502 290.754C265.565 290.395 260.28 289.677 254.359 292.301C248.382 294.952 245.338 299.453 244.342 301.11Z" fill="#0A3871"/>
<path d="M243.927 300.999C241.575 309.781 240.163 319.114 242.322 328.089C244.093 335.379 248.575 343.691 256.213 346.066C256.711 346.232 256.932 345.431 256.434 345.265C248.769 342.89 244.48 334.247 242.903 326.957C241.049 318.396 242.46 309.56 244.701 301.22C244.867 300.723 244.065 300.502 243.927 300.999Z" fill="black"/>
<path d="M256.821 345.928C269.578 344.63 280.231 335.434 283.22 322.953C283.33 322.428 282.556 322.207 282.417 322.732C279.512 334.799 269.246 343.829 256.821 345.099C256.296 345.154 256.268 345.983 256.821 345.928Z" fill="black"/>
<path d="M282.5 323.173C288.201 326.653 293.762 319.363 294.122 314.254C294.316 311.548 293.071 309.477 290.387 308.703C287.896 307.985 285.184 308.731 283.413 310.609C283.054 310.995 283.635 311.575 283.995 311.189C285.461 309.615 287.675 308.924 289.805 309.394C290.912 309.642 292.13 310.25 292.766 311.244C293.458 312.321 293.375 313.812 293.209 315C292.545 319.28 287.785 325.41 282.915 322.428C282.473 322.179 282.03 322.897 282.5 323.173Z" fill="black"/>
<path d="M282.445 323.118C281.366 330.767 281.753 338.527 283.579 346.038C283.718 346.563 284.52 346.342 284.382 345.817C282.583 338.444 282.196 330.823 283.247 323.339C283.303 322.814 282.5 322.594 282.445 323.118Z" fill="black"/>
<path d="M268.139 342.034C268.997 346.508 270.325 350.843 272.151 355.04C272.373 355.537 273.092 355.096 272.871 354.626C271.072 350.512 269.772 346.231 268.941 341.813C268.831 341.288 268.056 341.509 268.139 342.034Z" fill="black"/>
<path d="M272.732 355.151C278.073 354.295 282.583 350.622 284.603 345.624C284.797 345.127 283.995 344.906 283.801 345.403C281.892 350.153 277.547 353.549 272.511 354.35C271.985 354.433 272.207 355.234 272.732 355.151Z" fill="black"/>
<path d="M268.803 343C269.938 343.056 270.712 342.282 271.57 341.62C272.705 340.736 273.784 339.797 274.78 338.803C276.634 336.953 278.128 334.827 279.097 332.397C279.29 331.899 278.488 331.679 278.294 332.176C277.436 334.33 276.108 336.235 274.503 337.892C273.784 338.665 273.009 339.355 272.207 340.046C271.321 340.791 270.048 342.227 268.803 342.172C268.277 342.144 268.277 342.973 268.803 343Z" fill="black"/>
<path d="M268.858 342.559C271.21 341.04 273.396 339.3 275.444 337.395C275.831 337.036 275.25 336.429 274.863 336.815C272.871 338.693 270.74 340.377 268.443 341.869C267.973 342.117 268.416 342.835 268.858 342.559Z" fill="black"/>
<path d="M252.588 302.601C251.038 309.642 250.153 316.795 249.959 324.002C249.959 324.416 250.512 324.554 250.734 324.223C251.813 322.511 252.892 320.771 253.971 319.059C254.248 318.617 253.529 318.175 253.252 318.645C252.173 320.357 251.094 322.097 250.014 323.809C250.263 323.891 250.54 323.947 250.789 324.03C250.983 316.905 251.868 309.808 253.39 302.849C253.501 302.297 252.698 302.076 252.588 302.601Z" fill="black"/>
<path d="M253.695 334.385C253.03 333.142 252.588 331.817 252.477 330.408C252.394 329.414 252.615 325.383 254.497 326.984C255.493 327.84 255.355 329.718 255.382 330.961C255.382 331.541 255.382 332.148 255.327 332.728C255.299 333.142 255.244 333.556 255.161 333.943C254.442 334.44 253.888 334.413 253.529 333.888C253.169 333.501 252.56 334.081 252.947 334.468C254.137 335.683 255.687 335.738 256.019 333.833C256.268 332.48 256.268 331.044 256.157 329.69C256.074 328.613 256.074 327.067 255.272 326.239C254.082 325.024 252.394 326.156 251.924 327.454C251.066 329.773 251.896 332.7 253.003 334.799C253.224 335.269 253.944 334.854 253.695 334.385Z" fill="black"/>
<path d="M259.422 309.532C260.253 313.426 265.372 313.729 266.894 310.139C267.087 309.642 266.285 309.421 266.091 309.919C264.846 312.846 260.861 312.293 260.225 309.311C260.114 308.814 259.312 309.007 259.422 309.532Z" fill="black"/>
<path d="M257.79 299.95C258.841 297.603 261.553 296.47 264.044 296.995C266.617 297.547 268.582 299.536 269.855 301.717C270.131 302.187 270.851 301.772 270.574 301.303C269.107 298.79 266.783 296.553 263.795 296.111C261.11 295.725 258.233 296.995 257.07 299.508C256.849 300.033 257.569 300.447 257.79 299.95Z" fill="black"/>
<path d="M241.575 300.861C242.322 299.315 243.622 297.63 245.532 297.658C247.358 297.685 248.686 299.287 249.599 300.695C249.876 301.137 250.595 300.723 250.319 300.281C249.267 298.597 247.69 296.857 245.532 296.829C243.318 296.802 241.768 298.624 240.883 300.447C240.634 300.916 241.353 301.331 241.575 300.861Z" fill="black"/>
<path d="M246.472 313.37C246.961 313.37 247.358 311.553 247.358 309.311C247.358 307.069 246.961 305.252 246.472 305.252C245.983 305.252 245.587 307.069 245.587 309.311C245.587 311.553 245.983 313.37 246.472 313.37Z" fill="black"/>
<path d="M249.018 357.056C248.935 358.078 248.824 359.486 248.769 361.116C248.52 366.694 248.741 370.919 248.824 372.051C249.046 375.724 249.544 380.529 250.706 386.107C249.599 387.377 247.939 389.255 245.808 391.464C241.768 395.689 239.693 397.843 236.372 400.08C232.664 402.565 230.091 403.338 228.707 403.697C226.964 404.111 225.304 404.498 223.284 404.056C219.991 403.31 218.026 400.88 217.307 399.941C215.481 397.622 215.066 395.357 214.318 390.939C213.765 387.708 213.654 385.251 213.488 380.501C213.405 378.237 213.295 375.475 213.35 371.775C213.405 367.605 213.627 362.662 214.235 357.139C214.512 354.654 214.899 351.589 215.508 348.109C215.038 347.447 214.54 346.784 214.014 346.093C213.461 345.375 212.935 344.685 212.381 343.995C210.97 345.182 209.587 346.397 208.175 347.585C207.816 347.723 207.179 347.944 206.404 347.861C204.938 347.723 204.08 346.701 203.776 346.37C202.42 344.823 202.613 342.863 202.669 342.476C204.578 340.405 206.487 338.361 208.424 336.29C208.452 335.103 208.618 333.557 209.089 331.844C209.448 330.574 209.891 329.525 210.306 328.641C210.666 327.923 211.164 327.122 211.8 326.322C212.935 324.83 214.152 323.781 215.149 323.063C214.346 323.422 214.152 323.422 214.097 323.367C213.959 323.146 215.259 321.517 217.086 321.351C218.109 321.241 218.912 321.627 219.465 321.876C220.323 322.29 220.904 322.815 221.264 323.201C222.979 321.738 224.695 320.274 226.411 318.838C227.019 319.197 227.628 319.611 228.237 320.025C229.648 320.992 230.921 321.958 232.056 322.897C231.641 323.422 231.115 324.002 230.451 324.582C229.344 325.548 228.237 326.128 227.379 326.515C227.905 326.681 228.846 327.067 229.316 327.978C229.787 328.862 229.593 329.829 229.316 331.044C229.122 331.872 228.873 332.535 228.68 332.977C228.79 334.136 228.846 335.71 228.514 337.478C227.988 340.377 226.77 342.531 225.94 343.774C225.913 344.851 225.885 346.535 225.94 348.606C226.162 357.139 227.407 362.137 228.209 368.433C228.68 372.023 229.15 377.353 229.012 384.063C229.648 383.649 230.561 382.986 231.585 382.13C234.186 379.949 235.847 377.767 238.033 374.564C240.191 371.443 241.602 369.124 243.512 366.031C244.701 364.015 246.611 360.95 249.018 357.056Z" fill="white"/>
<path opacity="0.24" d="M223.865 331.844C223.284 333.115 222.703 334.412 222.122 335.738C220.434 339.714 219.05 343.525 217.916 347.17C217.667 352.914 217.528 357.719 217.418 361.198C217.279 366.473 217.611 372.769 218.22 385.361C218.469 390.553 218.69 393.701 221.126 395.993C223.671 398.367 227.213 398.423 229.205 398.423C239.831 398.395 247.773 389.365 249.959 386.742C246.998 391.768 243.622 395.054 241.325 396.987C238.724 399.168 235.376 401.902 230.174 403.255C225.774 404.415 223.782 404.166 223.256 404.056C219.465 403.145 217.362 399.997 216.615 398.92C214.816 396.241 214.235 393.452 213.903 387.46C213.571 381.302 213.931 379.672 214.042 371.195C214.125 363.104 213.82 360.812 214.429 355.206C214.789 351.92 215.232 349.214 215.591 347.391C214.512 346.259 213.433 345.127 212.354 344.022C211.441 344.823 210.5 345.596 209.559 346.397C208.95 346.922 208.314 347.446 207.705 347.944C207.152 347.999 206.349 347.971 205.491 347.612C203.278 346.673 201.894 343.939 202.586 343.001C203.029 342.365 204.191 342.862 205.796 342.862C208.563 342.89 210.417 341.482 214.097 338.831C216.698 336.925 219.687 334.799 223.865 331.844Z" fill="#9B9797"/>
<path d="M248.658 356.835C242.266 365.644 237.535 375.751 229.455 383.262C229.067 383.621 229.648 384.201 230.036 383.842C238.171 376.276 242.93 366.114 249.378 357.25C249.71 356.835 248.99 356.421 248.658 356.835Z" fill="black"/>
<path d="M224.861 404.691C235.819 403.973 243.678 394.805 250.263 387.018C250.595 386.604 250.014 386.024 249.682 386.438C243.29 394.06 235.542 403.172 224.889 403.89C224.335 403.89 224.335 404.719 224.861 404.691Z" fill="black"/>
<path d="M219.659 326.901C219.714 329.083 221.153 330.961 223.256 331.568C223.782 331.706 224.003 330.906 223.478 330.767C221.734 330.27 220.544 328.696 220.489 326.901C220.461 326.377 219.631 326.377 219.659 326.901Z" fill="black"/>
<path d="M220.517 326.653C220.793 324.25 225.082 325.99 226.245 326.598C227.379 327.178 228.514 327.757 228.763 329.138C228.956 330.188 228.624 331.292 228.348 332.314C228.209 332.839 229.012 333.059 229.15 332.535C229.538 331.154 229.953 329.58 229.372 328.227C228.818 326.846 227.296 326.211 226.051 325.604C224.778 324.996 223.395 324.554 221.956 324.72C221.375 324.803 220.627 324.941 220.157 325.327C219.659 325.714 219.77 325.99 219.687 326.681C219.631 327.178 220.461 327.178 220.517 326.653Z" fill="black"/>
<path d="M228.071 332.148C227.988 334.247 228.458 336.29 227.96 338.389C227.49 340.322 226.549 342.117 225.608 343.857C225.359 344.326 226.079 344.74 226.328 344.271C227.296 342.448 228.265 340.598 228.763 338.61C229.289 336.456 228.818 334.33 228.901 332.148C228.929 331.596 228.099 331.596 228.071 332.148Z" fill="black"/>
<path d="M225.608 343.884C224.972 358.437 229.15 372.686 228.486 387.239C228.458 387.763 229.288 387.763 229.316 387.239C229.98 372.686 225.802 358.437 226.438 343.884C226.466 343.359 225.636 343.359 225.608 343.884Z" fill="black"/>
<path d="M212.022 344.188C212.852 345.348 213.737 346.452 214.733 347.474C215.093 347.861 215.674 347.281 215.315 346.894C214.374 345.9 213.516 344.878 212.741 343.774C212.409 343.332 211.69 343.746 212.022 344.188Z" fill="black"/>
<path d="M215.204 347.253C213.627 356.228 212.852 365.341 212.879 374.453C212.907 378.982 213.129 383.538 213.571 388.04C213.931 391.878 214.374 395.91 216.394 399.279C218.22 402.344 221.43 404.663 225.083 404.581C225.608 404.553 225.608 403.725 225.083 403.752C219.963 403.89 216.67 399.334 215.481 394.86C214.152 389.945 214.042 384.588 213.848 379.534C213.433 368.82 214.18 358.05 216.034 347.502C216.089 346.949 215.287 346.728 215.204 347.253Z" fill="black"/>
<path d="M209.974 334.854C207.373 337.036 204.855 339.328 202.475 341.73C202.088 342.117 202.696 342.697 203.056 342.31C205.464 339.908 207.954 337.616 210.555 335.434C210.97 335.103 210.389 334.523 209.974 334.854Z" fill="black"/>
<path d="M202.226 342.476C201.811 345.679 204.246 348.385 207.484 348.358C208.009 348.358 208.009 347.529 207.484 347.529C204.689 347.557 202.696 345.21 203.056 342.476C203.139 341.951 202.309 341.951 202.226 342.476Z" fill="black"/>
<path d="M203.001 342.283C205.906 342.365 207.926 344.961 207.318 347.778C207.207 348.303 208.009 348.524 208.12 347.999C208.867 344.602 206.487 341.565 203.001 341.454C202.475 341.454 202.475 342.283 203.001 342.283Z" fill="black"/>
<path d="M208.452 347.861C211.607 344.989 214.816 342.145 217.888 339.19C219.299 337.837 220.655 336.456 221.928 334.965C222.62 334.164 224.363 332.59 224.391 331.485C224.391 331.347 224.308 331.182 224.197 331.126C224.142 331.099 224.086 331.071 224.059 331.071C223.893 330.988 223.671 330.988 223.561 331.126C223.533 331.154 223.505 331.182 223.478 331.237C223.146 331.651 223.727 332.231 224.059 331.817C224.086 331.789 224.114 331.762 224.142 331.706C223.976 331.734 223.81 331.762 223.644 331.762C223.588 331.513 223.505 331.513 223.395 331.789C223.256 331.982 223.118 332.176 222.952 332.369C222.62 332.783 222.315 333.197 221.956 333.612C221.402 334.302 220.793 334.965 220.212 335.628C218.995 336.953 217.722 338.196 216.421 339.411C213.599 342.062 210.721 344.63 207.871 347.253C207.456 347.64 208.065 348.22 208.452 347.861Z" fill="black"/>
<path d="M208.812 336.401C209.006 335.075 209.199 333.75 209.393 332.424C209.531 331.43 209.642 330.326 210.195 329.442C211.468 327.398 213.267 328.862 214.235 330.243C214.65 330.823 215.038 331.458 215.453 332.038C215.674 332.369 216.753 333.556 216.615 333.971C216.753 333.86 216.892 333.777 217.003 333.667C216.947 333.667 216.92 333.667 216.864 333.667C216.338 333.639 216.338 334.468 216.864 334.495C216.92 334.495 216.947 334.495 217.003 334.495C217.196 334.495 217.362 334.357 217.39 334.192C217.584 333.501 217.113 333.087 216.753 332.535C216.062 331.513 215.398 330.464 214.678 329.47C213.931 328.448 212.963 327.454 211.579 327.592C210.251 327.73 209.448 328.752 209.033 329.939C208.341 331.9 208.286 334.136 207.982 336.18C207.926 336.704 208.729 336.925 208.812 336.401Z" fill="black"/>
<path d="M210.112 333.28C210.86 334.744 212.105 336.235 213.876 336.346C215.342 336.456 216.726 335.628 217.113 334.192C217.252 333.667 216.449 333.446 216.311 333.971C215.951 335.296 214.484 335.793 213.267 335.379C212.105 334.965 211.358 333.943 210.832 332.894C210.583 332.397 209.863 332.811 210.112 333.28Z" fill="black"/>
<path d="M211.136 327.896C211.275 326.543 212.824 326.184 213.876 326.543C214.983 326.901 215.84 327.896 216.615 328.696C217.224 329.332 218.414 330.215 218.58 331.099C218.801 332.286 217.307 333.087 216.311 333.391C215.813 333.529 216.006 334.33 216.532 334.192C217.75 333.833 219.521 332.756 219.714 331.32C219.797 330.74 219.438 330.436 219.05 330.022C218.275 329.193 217.528 328.393 216.726 327.592C215.647 326.487 214.263 325.3 212.603 325.576C211.358 325.769 210.444 326.598 210.306 327.868C210.251 328.42 211.081 328.42 211.136 327.896Z" fill="black"/>
<path d="M212.63 325.852C213.018 325.41 213.212 324.83 213.571 324.389C214.457 323.284 215.84 324.306 216.753 324.968C218.524 326.211 220.406 328.475 218.801 330.629C218.497 331.071 219.216 331.485 219.521 331.044C221.236 328.724 219.548 326.045 217.584 324.554C216.67 323.864 215.287 322.621 214.042 322.98C212.935 323.284 212.741 324.554 212.049 325.3C211.69 325.659 212.271 326.239 212.63 325.852Z" fill="black"/>
<path d="M215.425 323.339C216.394 322.152 217.667 320.909 219.161 322.152C220.157 322.953 220.793 324.085 221.153 325.272C221.319 325.769 222.094 325.576 221.956 325.051C221.485 323.45 220.406 321.599 218.801 320.937C217.169 320.274 215.813 321.572 214.844 322.759C214.512 323.146 215.093 323.753 215.425 323.339Z" fill="black"/>
<path d="M221.541 323.45C223.256 321.986 224.972 320.522 226.687 319.087C227.102 318.728 226.494 318.148 226.106 318.507C224.391 319.97 222.675 321.434 220.959 322.87C220.544 323.229 221.153 323.809 221.541 323.45Z" fill="black"/>
<path d="M227.656 326.984C229.289 325.797 230.866 324.527 232.332 323.146C232.72 322.787 232.139 322.207 231.751 322.566C230.312 323.891 228.818 325.134 227.241 326.266C226.798 326.57 227.213 327.288 227.656 326.984Z" fill="black"/>
<path d="M240.08 324.913C249.311 324.913 256.794 317.446 256.794 308.234C256.794 299.023 249.311 291.555 240.08 291.555C230.85 291.555 223.367 299.023 223.367 308.234C223.367 317.446 230.85 324.913 240.08 324.913Z" stroke="black" stroke-width="3" stroke-miterlimit="10"/>
<path d="M229.953 310.278C236.096 306.356 242.377 302.656 248.797 299.177C249.267 298.928 248.852 298.21 248.382 298.459C241.962 301.91 235.681 305.611 229.538 309.56C229.095 309.863 229.51 310.581 229.953 310.278Z" fill="black"/>
<path d="M230.644 317.513C235.708 313.812 240.827 310.25 246.057 306.771C246.5 306.467 246.085 305.749 245.642 306.053C240.44 309.532 235.293 313.122 230.229 316.795C229.787 317.098 230.202 317.816 230.644 317.513Z" fill="black"/>
</g>
<defs>
<filter id="filter0_d_0_1" x="0" y="0" width="448" height="992" filterUnits="userSpaceOnUse" color-interpolation-filters="sRGB">
<feFlood flood-opacity="0" result="BackgroundImageFix"/>
<feColorMatrix in="SourceAlpha" type="matrix" values="0 0 0 0 0 0 0 0 0 0 0 0 0 0 0 0 0 0 127 0" result="hardAlpha"/>
<feMorphology radius="8" operator="erode" in="SourceAlpha" result="effect1_dropShadow_0_1"/>
<feOffset dy="24"/>
<feGaussianBlur stdDeviation="16"/>
<feComposite in2="hardAlpha" operator="out"/>
<feColorMatrix type="matrix" values="0 0 0 0 0 0 0 0 0 0 0 0 0 0 0 0 0 0 0.08 0"/>
<feBlend mode="normal" in2="BackgroundImageFix" result="effect1_dropShadow_0_1"/>
<feBlend mode="normal" in="SourceGraphic" in2="effect1_dropShadow_0_1" result="shape"/>
</filter>
<clipPath id="clip0_0_1">
<rect width="336" height="304" fill="white" transform="translate(56 243)"/>
</clipPath>
</defs>
</svg>
